<mxfile host="Electron" agent="Mozilla/5.0 (Windows NT 10.0; Win64; x64) AppleWebKit/537.36 (KHTML, like Gecko) draw.io/28.0.6 Chrome/138.0.7204.100 Electron/37.2.3 Safari/537.36" version="28.0.6" pages="2">
  <diagram name="Host" id="sOthAVzZkiCmHDQquYFD">
    <mxGraphModel dx="1041" dy="1482" grid="1" gridSize="10" guides="1" tooltips="1" connect="1" arrows="1" fold="1" page="1" pageScale="1" pageWidth="1100" pageHeight="850" math="0" shadow="0">
      <root>
        <mxCell id="0" />
        <mxCell id="1" parent="0" />
        <mxCell id="Qreq64U5mMYgkOqOlM4E-1" value="Hosts" style="text;html=1;align=center;verticalAlign=middle;whiteSpace=wrap;rounded=0;fontSize=18;fontStyle=1" parent="1" vertex="1">
          <mxGeometry x="13" y="10" width="180" height="40" as="geometry" />
        </mxCell>
        <mxCell id="Qreq64U5mMYgkOqOlM4E-2" value="Naming Convention" style="shape=table;startSize=30;container=1;collapsible=0;childLayout=tableLayout;strokeColor=default;fontSize=16;" parent="1" vertex="1">
          <mxGeometry x="38" y="60" width="1050" height="440" as="geometry" />
        </mxCell>
        <mxCell id="Qreq64U5mMYgkOqOlM4E-3" value="" style="shape=tableRow;horizontal=0;startSize=0;swimlaneHead=0;swimlaneBody=0;strokeColor=inherit;top=0;left=0;bottom=0;right=0;collapsible=0;dropTarget=0;fillColor=none;points=[[0,0.5],[1,0.5]];portConstraint=eastwest;fontSize=16;" parent="Qreq64U5mMYgkOqOlM4E-2" vertex="1">
          <mxGeometry y="30" width="1050" height="30" as="geometry" />
        </mxCell>
        <mxCell id="Qreq64U5mMYgkOqOlM4E-4" value="Name" style="shape=partialRectangle;html=1;whiteSpace=wrap;connectable=0;strokeColor=inherit;overflow=hidden;fillColor=none;top=0;left=0;bottom=0;right=0;pointerEvents=1;fontSize=16;" parent="Qreq64U5mMYgkOqOlM4E-3" vertex="1">
          <mxGeometry width="100" height="30" as="geometry">
            <mxRectangle width="100" height="30" as="alternateBounds" />
          </mxGeometry>
        </mxCell>
        <mxCell id="Qreq64U5mMYgkOqOlM4E-5" value="Type" style="shape=partialRectangle;html=1;whiteSpace=wrap;connectable=0;strokeColor=inherit;overflow=hidden;fillColor=none;top=0;left=0;bottom=0;right=0;pointerEvents=1;fontSize=16;" parent="Qreq64U5mMYgkOqOlM4E-3" vertex="1">
          <mxGeometry x="100" width="170" height="30" as="geometry">
            <mxRectangle width="170" height="30" as="alternateBounds" />
          </mxGeometry>
        </mxCell>
        <mxCell id="Qreq64U5mMYgkOqOlM4E-6" value="Site" style="shape=partialRectangle;html=1;whiteSpace=wrap;connectable=0;strokeColor=inherit;overflow=hidden;fillColor=none;top=0;left=0;bottom=0;right=0;pointerEvents=1;fontSize=16;" parent="Qreq64U5mMYgkOqOlM4E-3" vertex="1">
          <mxGeometry x="270" width="140" height="30" as="geometry">
            <mxRectangle width="140" height="30" as="alternateBounds" />
          </mxGeometry>
        </mxCell>
        <mxCell id="Qreq64U5mMYgkOqOlM4E-7" value="Subsystem" style="shape=partialRectangle;html=1;whiteSpace=wrap;connectable=0;strokeColor=inherit;overflow=hidden;fillColor=none;top=0;left=0;bottom=0;right=0;pointerEvents=1;fontSize=16;" parent="Qreq64U5mMYgkOqOlM4E-3" vertex="1">
          <mxGeometry x="410" width="190" height="30" as="geometry">
            <mxRectangle width="190" height="30" as="alternateBounds" />
          </mxGeometry>
        </mxCell>
        <mxCell id="Qreq64U5mMYgkOqOlM4E-8" value="Component (Optional)" style="shape=partialRectangle;html=1;whiteSpace=wrap;connectable=0;strokeColor=inherit;overflow=hidden;fillColor=none;top=0;left=0;bottom=0;right=0;pointerEvents=1;fontSize=16;" parent="Qreq64U5mMYgkOqOlM4E-3" vertex="1">
          <mxGeometry x="600" width="290" height="30" as="geometry">
            <mxRectangle width="290" height="30" as="alternateBounds" />
          </mxGeometry>
        </mxCell>
        <mxCell id="Qreq64U5mMYgkOqOlM4E-9" value="Numeric Identifier" style="shape=partialRectangle;html=1;whiteSpace=wrap;connectable=0;strokeColor=inherit;overflow=hidden;fillColor=none;top=0;left=0;bottom=0;right=0;pointerEvents=1;fontSize=16;" parent="Qreq64U5mMYgkOqOlM4E-3" vertex="1">
          <mxGeometry x="890" width="160" height="30" as="geometry">
            <mxRectangle width="160" height="30" as="alternateBounds" />
          </mxGeometry>
        </mxCell>
        <mxCell id="Qreq64U5mMYgkOqOlM4E-10" style="shape=tableRow;horizontal=0;startSize=0;swimlaneHead=0;swimlaneBody=0;strokeColor=inherit;top=0;left=0;bottom=0;right=0;collapsible=0;dropTarget=0;fillColor=none;points=[[0,0.5],[1,0.5]];portConstraint=eastwest;fontSize=16;" parent="Qreq64U5mMYgkOqOlM4E-2" vertex="1">
          <mxGeometry y="60" width="1050" height="40" as="geometry" />
        </mxCell>
        <mxCell id="Qreq64U5mMYgkOqOlM4E-11" value="Length" style="shape=partialRectangle;html=1;whiteSpace=wrap;connectable=0;strokeColor=inherit;overflow=hidden;fillColor=none;top=0;left=0;bottom=0;right=0;pointerEvents=1;fontSize=16;" parent="Qreq64U5mMYgkOqOlM4E-10" vertex="1">
          <mxGeometry width="100" height="40" as="geometry">
            <mxRectangle width="100" height="40" as="alternateBounds" />
          </mxGeometry>
        </mxCell>
        <mxCell id="Qreq64U5mMYgkOqOlM4E-12" value="1x char" style="shape=partialRectangle;html=1;whiteSpace=wrap;connectable=0;strokeColor=inherit;overflow=hidden;fillColor=none;top=0;left=0;bottom=0;right=0;pointerEvents=1;fontSize=16;" parent="Qreq64U5mMYgkOqOlM4E-10" vertex="1">
          <mxGeometry x="100" width="170" height="40" as="geometry">
            <mxRectangle width="170" height="40" as="alternateBounds" />
          </mxGeometry>
        </mxCell>
        <mxCell id="Qreq64U5mMYgkOqOlM4E-13" value="2x chars" style="shape=partialRectangle;html=1;whiteSpace=wrap;connectable=0;strokeColor=inherit;overflow=hidden;fillColor=none;top=0;left=0;bottom=0;right=0;pointerEvents=1;fontSize=16;" parent="Qreq64U5mMYgkOqOlM4E-10" vertex="1">
          <mxGeometry x="270" width="140" height="40" as="geometry">
            <mxRectangle width="140" height="40" as="alternateBounds" />
          </mxGeometry>
        </mxCell>
        <mxCell id="Qreq64U5mMYgkOqOlM4E-14" value="2x chars" style="shape=partialRectangle;html=1;whiteSpace=wrap;connectable=0;strokeColor=inherit;overflow=hidden;fillColor=none;top=0;left=0;bottom=0;right=0;pointerEvents=1;fontSize=16;" parent="Qreq64U5mMYgkOqOlM4E-10" vertex="1">
          <mxGeometry x="410" width="190" height="40" as="geometry">
            <mxRectangle width="190" height="40" as="alternateBounds" />
          </mxGeometry>
        </mxCell>
        <mxCell id="Qreq64U5mMYgkOqOlM4E-15" value="1-4x chars" style="shape=partialRectangle;html=1;whiteSpace=wrap;connectable=0;strokeColor=inherit;overflow=hidden;fillColor=none;top=0;left=0;bottom=0;right=0;pointerEvents=1;fontSize=16;" parent="Qreq64U5mMYgkOqOlM4E-10" vertex="1">
          <mxGeometry x="600" width="290" height="40" as="geometry">
            <mxRectangle width="290" height="40" as="alternateBounds" />
          </mxGeometry>
        </mxCell>
        <mxCell id="Qreq64U5mMYgkOqOlM4E-16" value="min. 2x ints" style="shape=partialRectangle;html=1;whiteSpace=wrap;connectable=0;strokeColor=inherit;overflow=hidden;fillColor=none;top=0;left=0;bottom=0;right=0;pointerEvents=1;fontSize=16;" parent="Qreq64U5mMYgkOqOlM4E-10" vertex="1">
          <mxGeometry x="890" width="160" height="40" as="geometry">
            <mxRectangle width="160" height="40" as="alternateBounds" />
          </mxGeometry>
        </mxCell>
        <mxCell id="Qreq64U5mMYgkOqOlM4E-17" value="" style="shape=tableRow;horizontal=0;startSize=0;swimlaneHead=0;swimlaneBody=0;strokeColor=inherit;top=0;left=0;bottom=0;right=0;collapsible=0;dropTarget=0;fillColor=none;points=[[0,0.5],[1,0.5]];portConstraint=eastwest;fontSize=16;" parent="Qreq64U5mMYgkOqOlM4E-2" vertex="1">
          <mxGeometry y="100" width="1050" height="90" as="geometry" />
        </mxCell>
        <mxCell id="Qreq64U5mMYgkOqOlM4E-18" value="Examples" style="shape=partialRectangle;html=1;whiteSpace=wrap;connectable=0;strokeColor=inherit;overflow=hidden;fillColor=none;top=0;left=0;bottom=0;right=0;pointerEvents=1;fontSize=16;" parent="Qreq64U5mMYgkOqOlM4E-17" vertex="1">
          <mxGeometry width="100" height="90" as="geometry">
            <mxRectangle width="100" height="90" as="alternateBounds" />
          </mxGeometry>
        </mxCell>
        <mxCell id="Qreq64U5mMYgkOqOlM4E-19" value="p=prod&lt;div&gt;t=test&lt;br&gt;&lt;br&gt;&lt;/div&gt;" style="shape=partialRectangle;html=1;whiteSpace=wrap;connectable=0;strokeColor=inherit;overflow=hidden;fillColor=none;top=0;left=0;bottom=0;right=0;pointerEvents=1;fontSize=16;" parent="Qreq64U5mMYgkOqOlM4E-17" vertex="1">
          <mxGeometry x="100" width="170" height="90" as="geometry">
            <mxRectangle width="170" height="90" as="alternateBounds" />
          </mxGeometry>
        </mxCell>
        <mxCell id="Qreq64U5mMYgkOqOlM4E-20" value="co=core&lt;div&gt;ba=backup&lt;/div&gt;" style="shape=partialRectangle;html=1;whiteSpace=wrap;connectable=0;strokeColor=inherit;overflow=hidden;fillColor=none;top=0;left=0;bottom=0;right=0;pointerEvents=1;fontSize=16;" parent="Qreq64U5mMYgkOqOlM4E-17" vertex="1">
          <mxGeometry x="270" width="140" height="90" as="geometry">
            <mxRectangle width="140" height="90" as="alternateBounds" />
          </mxGeometry>
        </mxCell>
        <mxCell id="Qreq64U5mMYgkOqOlM4E-21" value="ad=Active Directory&lt;div&gt;go=GitOps&lt;/div&gt;&lt;div&gt;px=PXe&lt;/div&gt;" style="shape=partialRectangle;html=1;whiteSpace=wrap;connectable=0;strokeColor=inherit;overflow=hidden;fillColor=none;top=0;left=0;bottom=0;right=0;pointerEvents=1;fontSize=16;" parent="Qreq64U5mMYgkOqOlM4E-17" vertex="1">
          <mxGeometry x="410" width="190" height="90" as="geometry">
            <mxRectangle width="190" height="90" as="alternateBounds" />
          </mxGeometry>
        </mxCell>
        <mxCell id="Qreq64U5mMYgkOqOlM4E-22" value="rwdc= Read/Write Domain Controller&lt;div&gt;rodc=Read Only DC&lt;br&gt;&lt;div&gt;ca=Cert. Authority&lt;/div&gt;&lt;div&gt;gl=GitLab&lt;/div&gt;&lt;/div&gt;" style="shape=partialRectangle;html=1;whiteSpace=wrap;connectable=0;strokeColor=inherit;overflow=hidden;fillColor=none;top=0;left=0;bottom=0;right=0;pointerEvents=1;fontSize=16;" parent="Qreq64U5mMYgkOqOlM4E-17" vertex="1">
          <mxGeometry x="600" width="290" height="90" as="geometry">
            <mxRectangle width="290" height="90" as="alternateBounds" />
          </mxGeometry>
        </mxCell>
        <mxCell id="Qreq64U5mMYgkOqOlM4E-23" value="00-99" style="shape=partialRectangle;html=1;whiteSpace=wrap;connectable=0;strokeColor=inherit;overflow=hidden;fillColor=none;top=0;left=0;bottom=0;right=0;pointerEvents=1;fontSize=16;" parent="Qreq64U5mMYgkOqOlM4E-17" vertex="1">
          <mxGeometry x="890" width="160" height="90" as="geometry">
            <mxRectangle width="160" height="90" as="alternateBounds" />
          </mxGeometry>
        </mxCell>
        <mxCell id="Qreq64U5mMYgkOqOlM4E-24" style="shape=tableRow;horizontal=0;startSize=0;swimlaneHead=0;swimlaneBody=0;strokeColor=inherit;top=0;left=0;bottom=0;right=0;collapsible=0;dropTarget=0;fillColor=none;points=[[0,0.5],[1,0.5]];portConstraint=eastwest;fontSize=16;" parent="Qreq64U5mMYgkOqOlM4E-2" vertex="1">
          <mxGeometry y="190" width="1050" height="250" as="geometry" />
        </mxCell>
        <mxCell id="Qreq64U5mMYgkOqOlM4E-25" value="Description" style="shape=partialRectangle;html=1;whiteSpace=wrap;connectable=0;strokeColor=inherit;overflow=hidden;fillColor=none;top=0;left=0;bottom=0;right=0;pointerEvents=1;fontSize=16;" parent="Qreq64U5mMYgkOqOlM4E-24" vertex="1">
          <mxGeometry width="100" height="250" as="geometry">
            <mxRectangle width="100" height="250" as="alternateBounds" />
          </mxGeometry>
        </mxCell>
        <mxCell id="Qreq64U5mMYgkOqOlM4E-26" value="Differentiates between production and testing components primarily; production indicates a system is fully online and available, while testing systems are generally more flexible and less guaranteed." style="shape=partialRectangle;html=1;whiteSpace=wrap;connectable=0;strokeColor=inherit;overflow=hidden;fillColor=none;top=0;left=0;bottom=0;right=0;pointerEvents=1;fontSize=16;" parent="Qreq64U5mMYgkOqOlM4E-24" vertex="1">
          <mxGeometry x="100" width="170" height="250" as="geometry">
            <mxRectangle width="170" height="250" as="alternateBounds" />
          </mxGeometry>
        </mxCell>
        <mxCell id="Qreq64U5mMYgkOqOlM4E-27" value="Differentiates between different physical sites; each site receives a set 2-character code." style="shape=partialRectangle;html=1;whiteSpace=wrap;connectable=0;strokeColor=inherit;overflow=hidden;fillColor=none;top=0;left=0;bottom=0;right=0;pointerEvents=1;fontSize=16;" parent="Qreq64U5mMYgkOqOlM4E-24" vertex="1">
          <mxGeometry x="270" width="140" height="250" as="geometry">
            <mxRectangle width="140" height="250" as="alternateBounds" />
          </mxGeometry>
        </mxCell>
        <mxCell id="Qreq64U5mMYgkOqOlM4E-28" value="Identifies subsystems, and the associated subsystem documentation that describes the architecture, functions, and data flows for that subsystem." style="shape=partialRectangle;html=1;whiteSpace=wrap;connectable=0;strokeColor=inherit;overflow=hidden;fillColor=none;top=0;left=0;bottom=0;right=0;pointerEvents=1;fontSize=16;" parent="Qreq64U5mMYgkOqOlM4E-24" vertex="1">
          <mxGeometry x="410" width="190" height="250" as="geometry">
            <mxRectangle width="190" height="250" as="alternateBounds" />
          </mxGeometry>
        </mxCell>
        <mxCell id="Qreq64U5mMYgkOqOlM4E-29" value="An optional component that further delineates subsystems into component systems. Useful when a single subsystem has multiple components, such as the GitOps ecosystem which includes the GitLab components, the Git Runners, etc." style="shape=partialRectangle;html=1;whiteSpace=wrap;connectable=0;strokeColor=inherit;overflow=hidden;fillColor=none;top=0;left=0;bottom=0;right=0;pointerEvents=1;fontSize=16;" parent="Qreq64U5mMYgkOqOlM4E-24" vertex="1">
          <mxGeometry x="600" width="290" height="250" as="geometry">
            <mxRectangle width="290" height="250" as="alternateBounds" />
          </mxGeometry>
        </mxCell>
        <mxCell id="Qreq64U5mMYgkOqOlM4E-30" value="Differentiates multiple variants of the same component, usually in HA scenarios." style="shape=partialRectangle;html=1;whiteSpace=wrap;connectable=0;strokeColor=inherit;overflow=hidden;fillColor=none;top=0;left=0;bottom=0;right=0;pointerEvents=1;fontSize=16;" parent="Qreq64U5mMYgkOqOlM4E-24" vertex="1">
          <mxGeometry x="890" width="160" height="250" as="geometry">
            <mxRectangle width="160" height="250" as="alternateBounds" />
          </mxGeometry>
        </mxCell>
        <mxCell id="Qreq64U5mMYgkOqOlM4E-31" value="p co ad rwdc 01" style="text;html=1;align=center;verticalAlign=middle;whiteSpace=wrap;rounded=0;fontSize=31;fontStyle=1" parent="1" vertex="1">
          <mxGeometry x="223" y="550" width="240" height="40" as="geometry" />
        </mxCell>
        <mxCell id="Qreq64U5mMYgkOqOlM4E-32" value="01 - this is the first system of this kind at this site" style="text;html=1;align=left;verticalAlign=middle;whiteSpace=wrap;rounded=0;" parent="1" vertex="1">
          <mxGeometry x="463" y="600" width="330" height="30" as="geometry" />
        </mxCell>
        <mxCell id="Qreq64U5mMYgkOqOlM4E-33" value="rwdc - this is a read/write domain controller" style="text;html=1;align=left;verticalAlign=middle;whiteSpace=wrap;rounded=0;" parent="1" vertex="1">
          <mxGeometry x="463" y="630" width="330" height="20" as="geometry" />
        </mxCell>
        <mxCell id="Qreq64U5mMYgkOqOlM4E-34" value="ad - this is part of the Active Directory (aka, Identity) subsystem" style="text;html=1;align=left;verticalAlign=middle;whiteSpace=wrap;rounded=0;" parent="1" vertex="1">
          <mxGeometry x="463" y="650" width="400" height="20" as="geometry" />
        </mxCell>
        <mxCell id="Qreq64U5mMYgkOqOlM4E-35" value="co - this system is physically located at the core site" style="text;html=1;align=left;verticalAlign=middle;whiteSpace=wrap;rounded=0;" parent="1" vertex="1">
          <mxGeometry x="463" y="680" width="400" height="20" as="geometry" />
        </mxCell>
        <mxCell id="Qreq64U5mMYgkOqOlM4E-36" value="p - this system is in production" style="text;html=1;align=left;verticalAlign=middle;whiteSpace=wrap;rounded=0;" parent="1" vertex="1">
          <mxGeometry x="463" y="710" width="400" height="20" as="geometry" />
        </mxCell>
        <mxCell id="Qreq64U5mMYgkOqOlM4E-37" value="" style="endArrow=classic;html=1;rounded=0;exitX=0.916;exitY=1.005;exitDx=0;exitDy=0;exitPerimeter=0;entryX=0;entryY=0.5;entryDx=0;entryDy=0;" parent="1" source="Qreq64U5mMYgkOqOlM4E-31" target="Qreq64U5mMYgkOqOlM4E-32" edge="1">
          <mxGeometry width="50" height="50" relative="1" as="geometry">
            <mxPoint x="593" y="380" as="sourcePoint" />
            <mxPoint x="643" y="330" as="targetPoint" />
            <Array as="points">
              <mxPoint x="443" y="615" />
            </Array>
          </mxGeometry>
        </mxCell>
        <mxCell id="Qreq64U5mMYgkOqOlM4E-38" value="" style="endArrow=classic;html=1;rounded=0;exitX=0.624;exitY=0.994;exitDx=0;exitDy=0;exitPerimeter=0;entryX=0;entryY=0.5;entryDx=0;entryDy=0;" parent="1" source="Qreq64U5mMYgkOqOlM4E-31" target="Qreq64U5mMYgkOqOlM4E-33" edge="1">
          <mxGeometry width="50" height="50" relative="1" as="geometry">
            <mxPoint x="373" y="590" as="sourcePoint" />
            <mxPoint x="393" y="615" as="targetPoint" />
            <Array as="points">
              <mxPoint x="373" y="640" />
            </Array>
          </mxGeometry>
        </mxCell>
        <mxCell id="Qreq64U5mMYgkOqOlM4E-39" value="" style="endArrow=classic;html=1;rounded=0;exitX=0.374;exitY=1.012;exitDx=0;exitDy=0;exitPerimeter=0;entryX=0;entryY=0.5;entryDx=0;entryDy=0;" parent="1" source="Qreq64U5mMYgkOqOlM4E-31" target="Qreq64U5mMYgkOqOlM4E-34" edge="1">
          <mxGeometry width="50" height="50" relative="1" as="geometry">
            <mxPoint x="313" y="590" as="sourcePoint" />
            <mxPoint x="403" y="640" as="targetPoint" />
            <Array as="points">
              <mxPoint x="313" y="660" />
            </Array>
          </mxGeometry>
        </mxCell>
        <mxCell id="Qreq64U5mMYgkOqOlM4E-40" value="" style="endArrow=classic;html=1;rounded=0;exitX=0.21;exitY=0.999;exitDx=0;exitDy=0;exitPerimeter=0;entryX=0;entryY=0.5;entryDx=0;entryDy=0;" parent="1" source="Qreq64U5mMYgkOqOlM4E-31" target="Qreq64U5mMYgkOqOlM4E-35" edge="1">
          <mxGeometry width="50" height="50" relative="1" as="geometry">
            <mxPoint x="273" y="590" as="sourcePoint" />
            <mxPoint x="363" y="640" as="targetPoint" />
            <Array as="points">
              <mxPoint x="273" y="690" />
            </Array>
          </mxGeometry>
        </mxCell>
        <mxCell id="Qreq64U5mMYgkOqOlM4E-41" value="" style="endArrow=classic;html=1;rounded=0;exitX=0.041;exitY=1.054;exitDx=0;exitDy=0;exitPerimeter=0;entryX=0;entryY=0.5;entryDx=0;entryDy=0;" parent="1" source="Qreq64U5mMYgkOqOlM4E-31" target="Qreq64U5mMYgkOqOlM4E-36" edge="1">
          <mxGeometry width="50" height="50" relative="1" as="geometry">
            <mxPoint x="333" y="680" as="sourcePoint" />
            <mxPoint x="423" y="730" as="targetPoint" />
            <Array as="points">
              <mxPoint x="233" y="720" />
            </Array>
          </mxGeometry>
        </mxCell>
      </root>
    </mxGraphModel>
  </diagram>
  <diagram id="FziZ1hZcM3VLBXWEbShb" name="Identities">
    <mxGraphModel dx="1778" dy="1028" grid="1" gridSize="10" guides="1" tooltips="1" connect="1" arrows="1" fold="1" page="1" pageScale="1" pageWidth="1100" pageHeight="850" math="0" shadow="0">
      <root>
        <mxCell id="0" />
        <mxCell id="1" parent="0" />
        <mxCell id="nvPfSUXclqZVfo-HnEbx-1" value="User Accounts" style="shape=table;startSize=30;container=1;collapsible=0;childLayout=tableLayout;strokeColor=default;fontSize=16;" vertex="1" parent="1">
          <mxGeometry x="105" y="50" width="890" height="240" as="geometry" />
        </mxCell>
        <mxCell id="nvPfSUXclqZVfo-HnEbx-2" value="" style="shape=tableRow;horizontal=0;startSize=0;swimlaneHead=0;swimlaneBody=0;strokeColor=inherit;top=0;left=0;bottom=0;right=0;collapsible=0;dropTarget=0;fillColor=none;points=[[0,0.5],[1,0.5]];portConstraint=eastwest;fontSize=16;" vertex="1" parent="nvPfSUXclqZVfo-HnEbx-1">
          <mxGeometry y="30" width="890" height="30" as="geometry" />
        </mxCell>
        <mxCell id="nvPfSUXclqZVfo-HnEbx-3" value="Name" style="shape=partialRectangle;html=1;whiteSpace=wrap;connectable=0;strokeColor=inherit;overflow=hidden;fillColor=none;top=0;left=0;bottom=0;right=0;pointerEvents=1;fontSize=16;" vertex="1" parent="nvPfSUXclqZVfo-HnEbx-2">
          <mxGeometry width="100" height="30" as="geometry">
            <mxRectangle width="100" height="30" as="alternateBounds" />
          </mxGeometry>
        </mxCell>
        <mxCell id="nvPfSUXclqZVfo-HnEbx-4" value="Type (Optional)" style="shape=partialRectangle;html=1;whiteSpace=wrap;connectable=0;strokeColor=inherit;overflow=hidden;fillColor=none;top=0;left=0;bottom=0;right=0;pointerEvents=1;fontSize=16;" vertex="1" parent="nvPfSUXclqZVfo-HnEbx-2">
          <mxGeometry x="100" width="170" height="30" as="geometry">
            <mxRectangle width="170" height="30" as="alternateBounds" />
          </mxGeometry>
        </mxCell>
        <mxCell id="nvPfSUXclqZVfo-HnEbx-5" value="First Initial" style="shape=partialRectangle;html=1;whiteSpace=wrap;connectable=0;strokeColor=inherit;overflow=hidden;fillColor=none;top=0;left=0;bottom=0;right=0;pointerEvents=1;fontSize=16;" vertex="1" parent="nvPfSUXclqZVfo-HnEbx-2">
          <mxGeometry x="270" width="140" height="30" as="geometry">
            <mxRectangle width="140" height="30" as="alternateBounds" />
          </mxGeometry>
        </mxCell>
        <mxCell id="nvPfSUXclqZVfo-HnEbx-6" value="Middle Initial" style="shape=partialRectangle;html=1;whiteSpace=wrap;connectable=0;strokeColor=inherit;overflow=hidden;fillColor=none;top=0;left=0;bottom=0;right=0;pointerEvents=1;fontSize=16;" vertex="1" parent="nvPfSUXclqZVfo-HnEbx-2">
          <mxGeometry x="410" width="190" height="30" as="geometry">
            <mxRectangle width="190" height="30" as="alternateBounds" />
          </mxGeometry>
        </mxCell>
        <mxCell id="nvPfSUXclqZVfo-HnEbx-7" value="Last Name" style="shape=partialRectangle;html=1;whiteSpace=wrap;connectable=0;strokeColor=inherit;overflow=hidden;fillColor=none;top=0;left=0;bottom=0;right=0;pointerEvents=1;fontSize=16;" vertex="1" parent="nvPfSUXclqZVfo-HnEbx-2">
          <mxGeometry x="600" width="290" height="30" as="geometry">
            <mxRectangle width="290" height="30" as="alternateBounds" />
          </mxGeometry>
        </mxCell>
        <mxCell id="nvPfSUXclqZVfo-HnEbx-9" style="shape=tableRow;horizontal=0;startSize=0;swimlaneHead=0;swimlaneBody=0;strokeColor=inherit;top=0;left=0;bottom=0;right=0;collapsible=0;dropTarget=0;fillColor=none;points=[[0,0.5],[1,0.5]];portConstraint=eastwest;fontSize=16;" vertex="1" parent="nvPfSUXclqZVfo-HnEbx-1">
          <mxGeometry y="60" width="890" height="40" as="geometry" />
        </mxCell>
        <mxCell id="nvPfSUXclqZVfo-HnEbx-10" value="Length" style="shape=partialRectangle;html=1;whiteSpace=wrap;connectable=0;strokeColor=inherit;overflow=hidden;fillColor=none;top=0;left=0;bottom=0;right=0;pointerEvents=1;fontSize=16;" vertex="1" parent="nvPfSUXclqZVfo-HnEbx-9">
          <mxGeometry width="100" height="40" as="geometry">
            <mxRectangle width="100" height="40" as="alternateBounds" />
          </mxGeometry>
        </mxCell>
        <mxCell id="nvPfSUXclqZVfo-HnEbx-11" value="1x chars" style="shape=partialRectangle;html=1;whiteSpace=wrap;connectable=0;strokeColor=inherit;overflow=hidden;fillColor=none;top=0;left=0;bottom=0;right=0;pointerEvents=1;fontSize=16;" vertex="1" parent="nvPfSUXclqZVfo-HnEbx-9">
          <mxGeometry x="100" width="170" height="40" as="geometry">
            <mxRectangle width="170" height="40" as="alternateBounds" />
          </mxGeometry>
        </mxCell>
        <mxCell id="nvPfSUXclqZVfo-HnEbx-12" value="1x char" style="shape=partialRectangle;html=1;whiteSpace=wrap;connectable=0;strokeColor=inherit;overflow=hidden;fillColor=none;top=0;left=0;bottom=0;right=0;pointerEvents=1;fontSize=16;" vertex="1" parent="nvPfSUXclqZVfo-HnEbx-9">
          <mxGeometry x="270" width="140" height="40" as="geometry">
            <mxRectangle width="140" height="40" as="alternateBounds" />
          </mxGeometry>
        </mxCell>
        <mxCell id="nvPfSUXclqZVfo-HnEbx-13" value="1x char" style="shape=partialRectangle;html=1;whiteSpace=wrap;connectable=0;strokeColor=inherit;overflow=hidden;fillColor=none;top=0;left=0;bottom=0;right=0;pointerEvents=1;fontSize=16;" vertex="1" parent="nvPfSUXclqZVfo-HnEbx-9">
          <mxGeometry x="410" width="190" height="40" as="geometry">
            <mxRectangle width="190" height="40" as="alternateBounds" />
          </mxGeometry>
        </mxCell>
        <mxCell id="nvPfSUXclqZVfo-HnEbx-14" value="Full Length" style="shape=partialRectangle;html=1;whiteSpace=wrap;connectable=0;strokeColor=inherit;overflow=hidden;fillColor=none;top=0;left=0;bottom=0;right=0;pointerEvents=1;fontSize=16;" vertex="1" parent="nvPfSUXclqZVfo-HnEbx-9">
          <mxGeometry x="600" width="290" height="40" as="geometry">
            <mxRectangle width="290" height="40" as="alternateBounds" />
          </mxGeometry>
        </mxCell>
        <mxCell id="nvPfSUXclqZVfo-HnEbx-16" value="" style="shape=tableRow;horizontal=0;startSize=0;swimlaneHead=0;swimlaneBody=0;strokeColor=inherit;top=0;left=0;bottom=0;right=0;collapsible=0;dropTarget=0;fillColor=none;points=[[0,0.5],[1,0.5]];portConstraint=eastwest;fontSize=16;" vertex="1" parent="nvPfSUXclqZVfo-HnEbx-1">
          <mxGeometry y="100" width="890" height="40" as="geometry" />
        </mxCell>
        <mxCell id="nvPfSUXclqZVfo-HnEbx-17" value="Examples" style="shape=partialRectangle;html=1;whiteSpace=wrap;connectable=0;strokeColor=inherit;overflow=hidden;fillColor=none;top=0;left=0;bottom=0;right=0;pointerEvents=1;fontSize=16;" vertex="1" parent="nvPfSUXclqZVfo-HnEbx-16">
          <mxGeometry width="100" height="40" as="geometry">
            <mxRectangle width="100" height="40" as="alternateBounds" />
          </mxGeometry>
        </mxCell>
        <mxCell id="nvPfSUXclqZVfo-HnEbx-18" value="a=admin" style="shape=partialRectangle;html=1;whiteSpace=wrap;connectable=0;strokeColor=inherit;overflow=hidden;fillColor=none;top=0;left=0;bottom=0;right=0;pointerEvents=1;fontSize=16;" vertex="1" parent="nvPfSUXclqZVfo-HnEbx-16">
          <mxGeometry x="100" width="170" height="40" as="geometry">
            <mxRectangle width="170" height="40" as="alternateBounds" />
          </mxGeometry>
        </mxCell>
        <mxCell id="nvPfSUXclqZVfo-HnEbx-19" value="" style="shape=partialRectangle;html=1;whiteSpace=wrap;connectable=0;strokeColor=inherit;overflow=hidden;fillColor=none;top=0;left=0;bottom=0;right=0;pointerEvents=1;fontSize=16;" vertex="1" parent="nvPfSUXclqZVfo-HnEbx-16">
          <mxGeometry x="270" width="140" height="40" as="geometry">
            <mxRectangle width="140" height="40" as="alternateBounds" />
          </mxGeometry>
        </mxCell>
        <mxCell id="nvPfSUXclqZVfo-HnEbx-20" value="" style="shape=partialRectangle;html=1;whiteSpace=wrap;connectable=0;strokeColor=inherit;overflow=hidden;fillColor=none;top=0;left=0;bottom=0;right=0;pointerEvents=1;fontSize=16;" vertex="1" parent="nvPfSUXclqZVfo-HnEbx-16">
          <mxGeometry x="410" width="190" height="40" as="geometry">
            <mxRectangle width="190" height="40" as="alternateBounds" />
          </mxGeometry>
        </mxCell>
        <mxCell id="nvPfSUXclqZVfo-HnEbx-21" value="" style="shape=partialRectangle;html=1;whiteSpace=wrap;connectable=0;strokeColor=inherit;overflow=hidden;fillColor=none;top=0;left=0;bottom=0;right=0;pointerEvents=1;fontSize=16;" vertex="1" parent="nvPfSUXclqZVfo-HnEbx-16">
          <mxGeometry x="600" width="290" height="40" as="geometry">
            <mxRectangle width="290" height="40" as="alternateBounds" />
          </mxGeometry>
        </mxCell>
        <mxCell id="nvPfSUXclqZVfo-HnEbx-23" style="shape=tableRow;horizontal=0;startSize=0;swimlaneHead=0;swimlaneBody=0;strokeColor=inherit;top=0;left=0;bottom=0;right=0;collapsible=0;dropTarget=0;fillColor=none;points=[[0,0.5],[1,0.5]];portConstraint=eastwest;fontSize=16;" vertex="1" parent="nvPfSUXclqZVfo-HnEbx-1">
          <mxGeometry y="140" width="890" height="100" as="geometry" />
        </mxCell>
        <mxCell id="nvPfSUXclqZVfo-HnEbx-24" value="Description" style="shape=partialRectangle;html=1;whiteSpace=wrap;connectable=0;strokeColor=inherit;overflow=hidden;fillColor=none;top=0;left=0;bottom=0;right=0;pointerEvents=1;fontSize=16;" vertex="1" parent="nvPfSUXclqZVfo-HnEbx-23">
          <mxGeometry width="100" height="100" as="geometry">
            <mxRectangle width="100" height="100" as="alternateBounds" />
          </mxGeometry>
        </mxCell>
        <mxCell id="nvPfSUXclqZVfo-HnEbx-25" value="Identifies privileged accounts; absent for general users" style="shape=partialRectangle;html=1;whiteSpace=wrap;connectable=0;strokeColor=inherit;overflow=hidden;fillColor=none;top=0;left=0;bottom=0;right=0;pointerEvents=1;fontSize=16;" vertex="1" parent="nvPfSUXclqZVfo-HnEbx-23">
          <mxGeometry x="100" width="170" height="100" as="geometry">
            <mxRectangle width="170" height="100" as="alternateBounds" />
          </mxGeometry>
        </mxCell>
        <mxCell id="nvPfSUXclqZVfo-HnEbx-26" value="" style="shape=partialRectangle;html=1;whiteSpace=wrap;connectable=0;strokeColor=inherit;overflow=hidden;fillColor=none;top=0;left=0;bottom=0;right=0;pointerEvents=1;fontSize=16;" vertex="1" parent="nvPfSUXclqZVfo-HnEbx-23">
          <mxGeometry x="270" width="140" height="100" as="geometry">
            <mxRectangle width="140" height="100" as="alternateBounds" />
          </mxGeometry>
        </mxCell>
        <mxCell id="nvPfSUXclqZVfo-HnEbx-27" value="" style="shape=partialRectangle;html=1;whiteSpace=wrap;connectable=0;strokeColor=inherit;overflow=hidden;fillColor=none;top=0;left=0;bottom=0;right=0;pointerEvents=1;fontSize=16;" vertex="1" parent="nvPfSUXclqZVfo-HnEbx-23">
          <mxGeometry x="410" width="190" height="100" as="geometry">
            <mxRectangle width="190" height="100" as="alternateBounds" />
          </mxGeometry>
        </mxCell>
        <mxCell id="nvPfSUXclqZVfo-HnEbx-28" value="" style="shape=partialRectangle;html=1;whiteSpace=wrap;connectable=0;strokeColor=inherit;overflow=hidden;fillColor=none;top=0;left=0;bottom=0;right=0;pointerEvents=1;fontSize=16;" vertex="1" parent="nvPfSUXclqZVfo-HnEbx-23">
          <mxGeometry x="600" width="290" height="100" as="geometry">
            <mxRectangle width="290" height="100" as="alternateBounds" />
          </mxGeometry>
        </mxCell>
        <mxCell id="nvPfSUXclqZVfo-HnEbx-30" value="Service Accounts" style="shape=table;startSize=30;container=1;collapsible=0;childLayout=tableLayout;strokeColor=default;fontSize=16;" vertex="1" parent="1">
          <mxGeometry x="160" y="420" width="765" height="310" as="geometry" />
        </mxCell>
        <mxCell id="nvPfSUXclqZVfo-HnEbx-31" value="" style="shape=tableRow;horizontal=0;startSize=0;swimlaneHead=0;swimlaneBody=0;strokeColor=inherit;top=0;left=0;bottom=0;right=0;collapsible=0;dropTarget=0;fillColor=none;points=[[0,0.5],[1,0.5]];portConstraint=eastwest;fontSize=16;" vertex="1" parent="nvPfSUXclqZVfo-HnEbx-30">
          <mxGeometry y="30" width="765" height="30" as="geometry" />
        </mxCell>
        <mxCell id="nvPfSUXclqZVfo-HnEbx-32" value="Name" style="shape=partialRectangle;html=1;whiteSpace=wrap;connectable=0;strokeColor=inherit;overflow=hidden;fillColor=none;top=0;left=0;bottom=0;right=0;pointerEvents=1;fontSize=16;" vertex="1" parent="nvPfSUXclqZVfo-HnEbx-31">
          <mxGeometry width="100" height="30" as="geometry">
            <mxRectangle width="100" height="30" as="alternateBounds" />
          </mxGeometry>
        </mxCell>
        <mxCell id="nvPfSUXclqZVfo-HnEbx-33" value="Type (Optional)" style="shape=partialRectangle;html=1;whiteSpace=wrap;connectable=0;strokeColor=inherit;overflow=hidden;fillColor=none;top=0;left=0;bottom=0;right=0;pointerEvents=1;fontSize=16;" vertex="1" parent="nvPfSUXclqZVfo-HnEbx-31">
          <mxGeometry x="100" width="170" height="30" as="geometry">
            <mxRectangle width="170" height="30" as="alternateBounds" />
          </mxGeometry>
        </mxCell>
        <mxCell id="nvPfSUXclqZVfo-HnEbx-34" value="Subsystem" style="shape=partialRectangle;html=1;whiteSpace=wrap;connectable=0;strokeColor=inherit;overflow=hidden;fillColor=none;top=0;left=0;bottom=0;right=0;pointerEvents=1;fontSize=16;" vertex="1" parent="nvPfSUXclqZVfo-HnEbx-31">
          <mxGeometry x="270" width="165" height="30" as="geometry">
            <mxRectangle width="165" height="30" as="alternateBounds" />
          </mxGeometry>
        </mxCell>
        <mxCell id="nvPfSUXclqZVfo-HnEbx-35" value="Purpose" style="shape=partialRectangle;html=1;whiteSpace=wrap;connectable=0;strokeColor=inherit;overflow=hidden;fillColor=none;top=0;left=0;bottom=0;right=0;pointerEvents=1;fontSize=16;" vertex="1" parent="nvPfSUXclqZVfo-HnEbx-31">
          <mxGeometry x="435" width="165" height="30" as="geometry">
            <mxRectangle width="165" height="30" as="alternateBounds" />
          </mxGeometry>
        </mxCell>
        <mxCell id="LM6lhAxfTSKNdXsiie7b-13" value="Identifier (Optional)" style="shape=partialRectangle;html=1;whiteSpace=wrap;connectable=0;strokeColor=inherit;overflow=hidden;fillColor=none;top=0;left=0;bottom=0;right=0;pointerEvents=1;fontSize=16;" vertex="1" parent="nvPfSUXclqZVfo-HnEbx-31">
          <mxGeometry x="600" width="165" height="30" as="geometry">
            <mxRectangle width="165" height="30" as="alternateBounds" />
          </mxGeometry>
        </mxCell>
        <mxCell id="nvPfSUXclqZVfo-HnEbx-38" style="shape=tableRow;horizontal=0;startSize=0;swimlaneHead=0;swimlaneBody=0;strokeColor=inherit;top=0;left=0;bottom=0;right=0;collapsible=0;dropTarget=0;fillColor=none;points=[[0,0.5],[1,0.5]];portConstraint=eastwest;fontSize=16;" vertex="1" parent="nvPfSUXclqZVfo-HnEbx-30">
          <mxGeometry y="60" width="765" height="40" as="geometry" />
        </mxCell>
        <mxCell id="nvPfSUXclqZVfo-HnEbx-39" value="Length" style="shape=partialRectangle;html=1;whiteSpace=wrap;connectable=0;strokeColor=inherit;overflow=hidden;fillColor=none;top=0;left=0;bottom=0;right=0;pointerEvents=1;fontSize=16;" vertex="1" parent="nvPfSUXclqZVfo-HnEbx-38">
          <mxGeometry width="100" height="40" as="geometry">
            <mxRectangle width="100" height="40" as="alternateBounds" />
          </mxGeometry>
        </mxCell>
        <mxCell id="nvPfSUXclqZVfo-HnEbx-40" value="1x chars" style="shape=partialRectangle;html=1;whiteSpace=wrap;connectable=0;strokeColor=inherit;overflow=hidden;fillColor=none;top=0;left=0;bottom=0;right=0;pointerEvents=1;fontSize=16;" vertex="1" parent="nvPfSUXclqZVfo-HnEbx-38">
          <mxGeometry x="100" width="170" height="40" as="geometry">
            <mxRectangle width="170" height="40" as="alternateBounds" />
          </mxGeometry>
        </mxCell>
        <mxCell id="nvPfSUXclqZVfo-HnEbx-41" value="2x chars" style="shape=partialRectangle;html=1;whiteSpace=wrap;connectable=0;strokeColor=inherit;overflow=hidden;fillColor=none;top=0;left=0;bottom=0;right=0;pointerEvents=1;fontSize=16;" vertex="1" parent="nvPfSUXclqZVfo-HnEbx-38">
          <mxGeometry x="270" width="165" height="40" as="geometry">
            <mxRectangle width="165" height="40" as="alternateBounds" />
          </mxGeometry>
        </mxCell>
        <mxCell id="nvPfSUXclqZVfo-HnEbx-42" value="variable" style="shape=partialRectangle;html=1;whiteSpace=wrap;connectable=0;strokeColor=inherit;overflow=hidden;fillColor=none;top=0;left=0;bottom=0;right=0;pointerEvents=1;fontSize=16;" vertex="1" parent="nvPfSUXclqZVfo-HnEbx-38">
          <mxGeometry x="435" width="165" height="40" as="geometry">
            <mxRectangle width="165" height="40" as="alternateBounds" />
          </mxGeometry>
        </mxCell>
        <mxCell id="LM6lhAxfTSKNdXsiie7b-14" value="min 2x ints" style="shape=partialRectangle;html=1;whiteSpace=wrap;connectable=0;strokeColor=inherit;overflow=hidden;fillColor=none;top=0;left=0;bottom=0;right=0;pointerEvents=1;fontSize=16;" vertex="1" parent="nvPfSUXclqZVfo-HnEbx-38">
          <mxGeometry x="600" width="165" height="40" as="geometry">
            <mxRectangle width="165" height="40" as="alternateBounds" />
          </mxGeometry>
        </mxCell>
        <mxCell id="nvPfSUXclqZVfo-HnEbx-45" value="" style="shape=tableRow;horizontal=0;startSize=0;swimlaneHead=0;swimlaneBody=0;strokeColor=inherit;top=0;left=0;bottom=0;right=0;collapsible=0;dropTarget=0;fillColor=none;points=[[0,0.5],[1,0.5]];portConstraint=eastwest;fontSize=16;" vertex="1" parent="nvPfSUXclqZVfo-HnEbx-30">
          <mxGeometry y="100" width="765" height="50" as="geometry" />
        </mxCell>
        <mxCell id="nvPfSUXclqZVfo-HnEbx-46" value="Examples" style="shape=partialRectangle;html=1;whiteSpace=wrap;connectable=0;strokeColor=inherit;overflow=hidden;fillColor=none;top=0;left=0;bottom=0;right=0;pointerEvents=1;fontSize=16;" vertex="1" parent="nvPfSUXclqZVfo-HnEbx-45">
          <mxGeometry width="100" height="50" as="geometry">
            <mxRectangle width="100" height="50" as="alternateBounds" />
          </mxGeometry>
        </mxCell>
        <mxCell id="nvPfSUXclqZVfo-HnEbx-47" value="g=gMSA" style="shape=partialRectangle;html=1;whiteSpace=wrap;connectable=0;strokeColor=inherit;overflow=hidden;fillColor=none;top=0;left=0;bottom=0;right=0;pointerEvents=1;fontSize=16;" vertex="1" parent="nvPfSUXclqZVfo-HnEbx-45">
          <mxGeometry x="100" width="170" height="50" as="geometry">
            <mxRectangle width="170" height="50" as="alternateBounds" />
          </mxGeometry>
        </mxCell>
        <mxCell id="nvPfSUXclqZVfo-HnEbx-48" value="ad=Active Directory&lt;div&gt;go=GitOps&lt;/div&gt;" style="shape=partialRectangle;html=1;whiteSpace=wrap;connectable=0;strokeColor=inherit;overflow=hidden;fillColor=none;top=0;left=0;bottom=0;right=0;pointerEvents=1;fontSize=16;" vertex="1" parent="nvPfSUXclqZVfo-HnEbx-45">
          <mxGeometry x="270" width="165" height="50" as="geometry">
            <mxRectangle width="165" height="50" as="alternateBounds" />
          </mxGeometry>
        </mxCell>
        <mxCell id="nvPfSUXclqZVfo-HnEbx-49" value="run=GitOps Runner&lt;div&gt;ldap=LDAP connector&lt;/div&gt;" style="shape=partialRectangle;html=1;whiteSpace=wrap;connectable=0;strokeColor=inherit;overflow=hidden;fillColor=none;top=0;left=0;bottom=0;right=0;pointerEvents=1;fontSize=16;" vertex="1" parent="nvPfSUXclqZVfo-HnEbx-45">
          <mxGeometry x="435" width="165" height="50" as="geometry">
            <mxRectangle width="165" height="50" as="alternateBounds" />
          </mxGeometry>
        </mxCell>
        <mxCell id="LM6lhAxfTSKNdXsiie7b-15" value="01-99" style="shape=partialRectangle;html=1;whiteSpace=wrap;connectable=0;strokeColor=inherit;overflow=hidden;fillColor=none;top=0;left=0;bottom=0;right=0;pointerEvents=1;fontSize=16;" vertex="1" parent="nvPfSUXclqZVfo-HnEbx-45">
          <mxGeometry x="600" width="165" height="50" as="geometry">
            <mxRectangle width="165" height="50" as="alternateBounds" />
          </mxGeometry>
        </mxCell>
        <mxCell id="nvPfSUXclqZVfo-HnEbx-52" style="shape=tableRow;horizontal=0;startSize=0;swimlaneHead=0;swimlaneBody=0;strokeColor=inherit;top=0;left=0;bottom=0;right=0;collapsible=0;dropTarget=0;fillColor=none;points=[[0,0.5],[1,0.5]];portConstraint=eastwest;fontSize=16;" vertex="1" parent="nvPfSUXclqZVfo-HnEbx-30">
          <mxGeometry y="150" width="765" height="160" as="geometry" />
        </mxCell>
        <mxCell id="nvPfSUXclqZVfo-HnEbx-53" value="Description" style="shape=partialRectangle;html=1;whiteSpace=wrap;connectable=0;strokeColor=inherit;overflow=hidden;fillColor=none;top=0;left=0;bottom=0;right=0;pointerEvents=1;fontSize=16;" vertex="1" parent="nvPfSUXclqZVfo-HnEbx-52">
          <mxGeometry width="100" height="160" as="geometry">
            <mxRectangle width="100" height="160" as="alternateBounds" />
          </mxGeometry>
        </mxCell>
        <mxCell id="nvPfSUXclqZVfo-HnEbx-54" value="Differentiates group managed services accounts from regular service accounts" style="shape=partialRectangle;html=1;whiteSpace=wrap;connectable=0;strokeColor=inherit;overflow=hidden;fillColor=none;top=0;left=0;bottom=0;right=0;pointerEvents=1;fontSize=16;" vertex="1" parent="nvPfSUXclqZVfo-HnEbx-52">
          <mxGeometry x="100" width="170" height="160" as="geometry">
            <mxRectangle width="170" height="160" as="alternateBounds" />
          </mxGeometry>
        </mxCell>
        <mxCell id="nvPfSUXclqZVfo-HnEbx-55" value="Should match the subsystem code identified in the architecture diagrams" style="shape=partialRectangle;html=1;whiteSpace=wrap;connectable=0;strokeColor=inherit;overflow=hidden;fillColor=none;top=0;left=0;bottom=0;right=0;pointerEvents=1;fontSize=16;" vertex="1" parent="nvPfSUXclqZVfo-HnEbx-52">
          <mxGeometry x="270" width="165" height="160" as="geometry">
            <mxRectangle width="165" height="160" as="alternateBounds" />
          </mxGeometry>
        </mxCell>
        <mxCell id="nvPfSUXclqZVfo-HnEbx-56" value="Describes what the account is used for" style="shape=partialRectangle;html=1;whiteSpace=wrap;connectable=0;strokeColor=inherit;overflow=hidden;fillColor=none;top=0;left=0;bottom=0;right=0;pointerEvents=1;fontSize=16;" vertex="1" parent="nvPfSUXclqZVfo-HnEbx-52">
          <mxGeometry x="435" width="165" height="160" as="geometry">
            <mxRectangle width="165" height="160" as="alternateBounds" />
          </mxGeometry>
        </mxCell>
        <mxCell id="LM6lhAxfTSKNdXsiie7b-16" value="Only present when differentiating between multiple accounts with perform the same function, either in parallel or at different sites" style="shape=partialRectangle;html=1;whiteSpace=wrap;connectable=0;strokeColor=inherit;overflow=hidden;fillColor=none;top=0;left=0;bottom=0;right=0;pointerEvents=1;fontSize=16;" vertex="1" parent="nvPfSUXclqZVfo-HnEbx-52">
          <mxGeometry x="600" width="165" height="160" as="geometry">
            <mxRectangle width="165" height="160" as="alternateBounds" />
          </mxGeometry>
        </mxCell>
        <mxCell id="W0KlWTLtMDcodmatbdPI-1" value="Identities" style="text;html=1;align=center;verticalAlign=middle;whiteSpace=wrap;rounded=0;fontSize=18;fontStyle=1" vertex="1" parent="1">
          <mxGeometry width="180" height="40" as="geometry" />
        </mxCell>
        <mxCell id="_FJrmdrN86yh_EB-loKW-1" value="a - j q public" style="text;html=1;align=center;verticalAlign=middle;whiteSpace=wrap;rounded=0;fontSize=31;fontStyle=1;spacingBottom=4;" vertex="1" parent="1">
          <mxGeometry x="170" y="300" width="230" height="35" as="geometry" />
        </mxCell>
        <mxCell id="LM6lhAxfTSKNdXsiie7b-1" value="user&#39;s last name" style="text;html=1;align=left;verticalAlign=middle;whiteSpace=wrap;rounded=0;" vertex="1" parent="1">
          <mxGeometry x="370" y="340" width="100" height="20" as="geometry" />
        </mxCell>
        <mxCell id="LM6lhAxfTSKNdXsiie7b-2" value="" style="endArrow=classic;html=1;rounded=0;exitX=0.652;exitY=0.995;exitDx=0;exitDy=0;exitPerimeter=0;entryX=0;entryY=0.5;entryDx=0;entryDy=0;" edge="1" parent="1" target="LM6lhAxfTSKNdXsiie7b-1" source="_FJrmdrN86yh_EB-loKW-1">
          <mxGeometry width="50" height="50" relative="1" as="geometry">
            <mxPoint x="320" y="340" as="sourcePoint" />
            <mxPoint x="340" y="365" as="targetPoint" />
            <Array as="points">
              <mxPoint x="320" y="350" />
            </Array>
          </mxGeometry>
        </mxCell>
        <mxCell id="LM6lhAxfTSKNdXsiie7b-3" value="user&#39;s middle initial" style="text;html=1;align=left;verticalAlign=middle;whiteSpace=wrap;rounded=0;" vertex="1" parent="1">
          <mxGeometry x="370" y="360" width="330" height="20" as="geometry" />
        </mxCell>
        <mxCell id="LM6lhAxfTSKNdXsiie7b-4" value="" style="endArrow=classic;html=1;rounded=0;exitX=0.435;exitY=1.01;exitDx=0;exitDy=0;exitPerimeter=0;entryX=0;entryY=0.5;entryDx=0;entryDy=0;" edge="1" parent="1" source="_FJrmdrN86yh_EB-loKW-1" target="LM6lhAxfTSKNdXsiie7b-3">
          <mxGeometry width="50" height="50" relative="1" as="geometry">
            <mxPoint x="270" y="360" as="sourcePoint" />
            <mxPoint x="320" y="370" as="targetPoint" />
            <Array as="points">
              <mxPoint x="270" y="370" />
            </Array>
          </mxGeometry>
        </mxCell>
        <mxCell id="LM6lhAxfTSKNdXsiie7b-5" value="user&#39;s first initial" style="text;html=1;align=left;verticalAlign=middle;whiteSpace=wrap;rounded=0;" vertex="1" parent="1">
          <mxGeometry x="370" y="375" width="120" height="20" as="geometry" />
        </mxCell>
        <mxCell id="LM6lhAxfTSKNdXsiie7b-6" value="" style="endArrow=classic;html=1;rounded=0;exitX=0.303;exitY=0.995;exitDx=0;exitDy=0;exitPerimeter=0;entryX=0;entryY=0.5;entryDx=0;entryDy=0;" edge="1" parent="1" target="LM6lhAxfTSKNdXsiie7b-5" source="_FJrmdrN86yh_EB-loKW-1">
          <mxGeometry width="50" height="50" relative="1" as="geometry">
            <mxPoint x="270" y="350" as="sourcePoint" />
            <mxPoint x="320" y="385" as="targetPoint" />
            <Array as="points">
              <mxPoint x="240" y="385" />
            </Array>
          </mxGeometry>
        </mxCell>
        <mxCell id="LM6lhAxfTSKNdXsiie7b-7" value="admin identifier with hyphen" style="text;html=1;align=left;verticalAlign=middle;whiteSpace=wrap;rounded=0;" vertex="1" parent="1">
          <mxGeometry x="370" y="390" width="160" height="20" as="geometry" />
        </mxCell>
        <mxCell id="LM6lhAxfTSKNdXsiie7b-8" value="" style="endArrow=classic;html=1;rounded=0;exitX=0.174;exitY=1.001;exitDx=0;exitDy=0;exitPerimeter=0;entryX=0;entryY=0.5;entryDx=0;entryDy=0;" edge="1" parent="1" target="LM6lhAxfTSKNdXsiie7b-7" source="_FJrmdrN86yh_EB-loKW-1">
          <mxGeometry width="50" height="50" relative="1" as="geometry">
            <mxPoint x="240" y="350" as="sourcePoint" />
            <mxPoint x="320" y="400" as="targetPoint" />
            <Array as="points">
              <mxPoint x="210" y="400" />
            </Array>
          </mxGeometry>
        </mxCell>
        <mxCell id="LM6lhAxfTSKNdXsiie7b-17" value="g go ldap 01" style="text;html=1;align=center;verticalAlign=middle;whiteSpace=wrap;rounded=0;fontSize=31;fontStyle=1;spacingBottom=4;" vertex="1" parent="1">
          <mxGeometry x="170" y="740" width="210" height="35" as="geometry" />
        </mxCell>
        <mxCell id="LM6lhAxfTSKNdXsiie7b-18" value="01 - the first of multiple accounts of this type" style="text;html=1;align=left;verticalAlign=middle;whiteSpace=wrap;rounded=0;" vertex="1" parent="1">
          <mxGeometry x="395" y="782" width="245" height="20" as="geometry" />
        </mxCell>
        <mxCell id="LM6lhAxfTSKNdXsiie7b-19" value="" style="endArrow=classic;html=1;rounded=0;exitX=0.858;exitY=0.978;exitDx=0;exitDy=0;exitPerimeter=0;entryX=0;entryY=0.5;entryDx=0;entryDy=0;" edge="1" parent="1" target="LM6lhAxfTSKNdXsiie7b-18" source="LM6lhAxfTSKNdXsiie7b-17">
          <mxGeometry width="50" height="50" relative="1" as="geometry">
            <mxPoint x="345" y="780" as="sourcePoint" />
            <mxPoint x="365" y="810" as="targetPoint" />
            <Array as="points">
              <mxPoint x="350" y="792" />
            </Array>
          </mxGeometry>
        </mxCell>
        <mxCell id="LM6lhAxfTSKNdXsiie7b-21" value="ldap - this account supports LDAP for it&#39;s subsystem" style="text;html=1;align=left;verticalAlign=middle;whiteSpace=wrap;rounded=0;" vertex="1" parent="1">
          <mxGeometry x="395" y="800" width="285" height="20" as="geometry" />
        </mxCell>
        <mxCell id="LM6lhAxfTSKNdXsiie7b-22" value="" style="endArrow=classic;html=1;rounded=0;entryX=0;entryY=0.5;entryDx=0;entryDy=0;" edge="1" parent="1" target="LM6lhAxfTSKNdXsiie7b-21">
          <mxGeometry width="50" height="50" relative="1" as="geometry">
            <mxPoint x="300" y="774" as="sourcePoint" />
            <mxPoint x="365" y="826" as="targetPoint" />
            <Array as="points">
              <mxPoint x="300" y="810" />
            </Array>
          </mxGeometry>
        </mxCell>
        <mxCell id="LM6lhAxfTSKNdXsiie7b-23" value="ldap - this account supports LDAP for it&#39;s subsystem" style="text;html=1;align=left;verticalAlign=middle;whiteSpace=wrap;rounded=0;" vertex="1" parent="1">
          <mxGeometry x="395" y="817" width="285" height="20" as="geometry" />
        </mxCell>
        <mxCell id="LM6lhAxfTSKNdXsiie7b-24" value="" style="endArrow=classic;html=1;rounded=0;entryX=0;entryY=0.5;entryDx=0;entryDy=0;exitX=0.285;exitY=1.016;exitDx=0;exitDy=0;exitPerimeter=0;" edge="1" parent="1" target="LM6lhAxfTSKNdXsiie7b-23" source="LM6lhAxfTSKNdXsiie7b-17">
          <mxGeometry width="50" height="50" relative="1" as="geometry">
            <mxPoint x="300" y="787.5" as="sourcePoint" />
            <mxPoint x="365" y="839.5" as="targetPoint" />
            <Array as="points">
              <mxPoint x="230" y="827" />
            </Array>
          </mxGeometry>
        </mxCell>
        <mxCell id="LM6lhAxfTSKNdXsiie7b-25" value="g - gMSA identifier" style="text;html=1;align=left;verticalAlign=middle;whiteSpace=wrap;rounded=0;" vertex="1" parent="1">
          <mxGeometry x="395" y="830" width="285" height="20" as="geometry" />
        </mxCell>
        <mxCell id="LM6lhAxfTSKNdXsiie7b-26" value="" style="endArrow=classic;html=1;rounded=0;entryX=0;entryY=0.5;entryDx=0;entryDy=0;exitX=0.143;exitY=1.008;exitDx=0;exitDy=0;exitPerimeter=0;" edge="1" parent="1" target="LM6lhAxfTSKNdXsiie7b-25" source="LM6lhAxfTSKNdXsiie7b-17">
          <mxGeometry width="50" height="50" relative="1" as="geometry">
            <mxPoint x="230" y="786" as="sourcePoint" />
            <mxPoint x="365" y="849.5" as="targetPoint" />
            <Array as="points">
              <mxPoint x="200" y="840" />
            </Array>
          </mxGeometry>
        </mxCell>
      </root>
    </mxGraphModel>
  </diagram>
</mxfile>
